<?xml version="1.0" encoding="UTF-8"?>
<svg xmlns="http://www.w3.org/2000/svg" xmlns:xlink="http://www.w3.org/1999/xlink" width="50pt" height="50pt" viewBox="0 0 50 50" version="1.1">
<g id="surface18284391">
<path style=" stroke:none;fill-rule:nonzero;fill:rgb(41.176471%,20.392157%,62.352941%);fill-opacity:1;" d="M 18.960938 7.476562 C 18.933594 7.484375 18.902344 7.492188 18.875 7.5 C 18.644531 7.550781 18.457031 7.714844 18.371094 7.933594 C 18.289062 8.15625 18.320312 8.402344 18.460938 8.59375 L 19.945312 10.824219 C 17.429688 12.148438 15.621094 14.429688 15.199219 17.148438 C 15.199219 17.15625 15.199219 17.160156 15.199219 17.167969 C 15.199219 17.175781 15.199219 17.183594 15.199219 17.191406 C 15.199219 17.210938 15.199219 17.234375 15.199219 17.257812 C 15.199219 17.269531 15.199219 17.285156 15.199219 17.300781 C 15.195312 17.335938 15.195312 17.375 15.199219 17.410156 L 15.199219 18.394531 C 14.785156 18.148438 14.3125 18 13.800781 18 C 12.261719 18 11 19.261719 11 20.800781 L 11 29.199219 C 11 30.738281 12.261719 32 13.800781 32 C 14.3125 32 14.785156 31.851562 15.199219 31.605469 L 15.199219 33.398438 C 15.199219 34.550781 16.148438 35.5 17.300781 35.5 L 18 35.5 L 18 39.699219 C 18 41.238281 19.261719 42.5 20.800781 42.5 C 22.339844 42.5 23.601562 41.238281 23.601562 39.699219 L 23.601562 35.5 L 26.398438 35.5 L 26.398438 39.699219 C 26.398438 41.238281 27.660156 42.5 29.199219 42.5 C 30.738281 42.5 32 41.238281 32 39.699219 L 32 35.5 L 32.699219 35.5 C 33.851562 35.5 34.800781 34.550781 34.800781 33.398438 L 34.800781 31.605469 C 35.214844 31.851562 35.6875 32 36.199219 32 C 37.738281 32 39 30.738281 39 29.199219 L 39 20.800781 C 39 19.261719 37.738281 18 36.199219 18 C 35.6875 18 35.214844 18.148438 34.800781 18.394531 L 34.800781 17.429688 C 34.808594 17.367188 34.808594 17.300781 34.800781 17.234375 C 34.800781 17.226562 34.800781 17.21875 34.800781 17.210938 C 34.800781 17.203125 34.800781 17.199219 34.800781 17.191406 C 34.390625 14.457031 32.585938 12.152344 30.054688 10.824219 L 31.539062 8.59375 C 31.710938 8.359375 31.71875 8.042969 31.558594 7.796875 C 31.398438 7.554688 31.101562 7.433594 30.820312 7.5 C 30.636719 7.539062 30.480469 7.648438 30.382812 7.804688 L 28.742188 10.234375 C 27.585938 9.820312 26.316406 9.601562 25 9.601562 C 23.683594 9.601562 22.414062 9.820312 21.257812 10.234375 L 19.617188 7.804688 C 19.480469 7.582031 19.226562 7.457031 18.960938 7.476562 Z M 25 11 C 26.316406 11 27.546875 11.257812 28.632812 11.722656 C 28.652344 11.730469 28.675781 11.738281 28.695312 11.742188 C 30.886719 12.703125 32.480469 14.5 33.09375 16.601562 L 16.90625 16.601562 C 17.511719 14.53125 19.070312 12.753906 21.214844 11.789062 C 21.261719 11.769531 21.304688 11.75 21.347656 11.722656 C 22.433594 11.25 23.675781 11 25 11 Z M 21.148438 13.101562 C 20.566406 13.101562 20.101562 13.570312 20.101562 14.148438 C 20.101562 14.734375 20.566406 15.199219 21.148438 15.199219 C 21.730469 15.199219 22.199219 14.734375 22.199219 14.148438 C 22.199219 13.570312 21.730469 13.101562 21.148438 13.101562 Z M 28.851562 13.101562 C 28.269531 13.101562 27.800781 13.570312 27.800781 14.148438 C 27.800781 14.734375 28.269531 15.199219 28.851562 15.199219 C 29.433594 15.199219 29.898438 14.734375 29.898438 14.148438 C 29.898438 13.570312 29.433594 13.101562 28.851562 13.101562 Z M 16.601562 18 L 33.398438 18 L 33.398438 33.398438 C 33.398438 33.792969 33.09375 34.101562 32.699219 34.101562 L 27.230469 34.101562 C 27.136719 34.082031 27.039062 34.082031 26.945312 34.101562 L 18.832031 34.101562 C 18.738281 34.082031 18.640625 34.082031 18.546875 34.101562 L 17.300781 34.101562 C 16.90625 34.101562 16.601562 33.792969 16.601562 33.398438 Z M 13.800781 19.398438 C 14.582031 19.398438 15.199219 20.019531 15.199219 20.800781 L 15.199219 29.199219 C 15.199219 29.980469 14.582031 30.601562 13.800781 30.601562 C 13.019531 30.601562 12.398438 29.980469 12.398438 29.199219 L 12.398438 20.800781 C 12.398438 20.019531 13.019531 19.398438 13.800781 19.398438 Z M 36.199219 19.398438 C 36.980469 19.398438 37.601562 20.019531 37.601562 20.800781 L 37.601562 29.199219 C 37.601562 29.980469 36.980469 30.601562 36.199219 30.601562 C 35.417969 30.601562 34.800781 29.980469 34.800781 29.199219 L 34.800781 20.800781 C 34.800781 20.019531 35.417969 19.398438 36.199219 19.398438 Z M 19.398438 35.5 L 22.199219 35.5 L 22.199219 39.699219 C 22.199219 40.480469 21.582031 41.101562 20.800781 41.101562 C 20.019531 41.101562 19.398438 40.480469 19.398438 39.699219 Z M 27.800781 35.5 L 30.601562 35.5 L 30.601562 39.699219 C 30.601562 40.480469 29.980469 41.101562 29.199219 41.101562 C 28.417969 41.101562 27.800781 40.480469 27.800781 39.699219 Z M 27.800781 35.5 "/>
</g>
</svg>
