<?xml version="1.0" encoding="UTF-8"?>
<svg xmlns="http://www.w3.org/2000/svg" xmlns:xlink="http://www.w3.org/1999/xlink" width="32pt" height="32pt" viewBox="0 0 32 32" version="1.1">
<g id="surface18297736">
<path style=" stroke:none;fill-rule:nonzero;fill:rgb(41.176471%,20.392157%,62.352941%);fill-opacity:1;" d="M 8.300781 8.300781 L 8.300781 23.699219 L 23.699219 23.699219 L 23.699219 8.300781 Z M 9.699219 9.699219 L 22.300781 9.699219 L 22.300781 22.300781 L 9.699219 22.300781 Z M 15.300781 11.800781 C 13.375 11.800781 11.800781 13.375 11.800781 15.300781 C 11.800781 17.226562 13.375 18.800781 15.300781 18.800781 C 15.996094 18.800781 16.636719 18.605469 17.179688 18.253906 L 19.195312 20.199219 L 20.15625 19.195312 L 18.1875 17.269531 C 18.574219 16.707031 18.800781 16.03125 18.800781 15.300781 C 18.800781 13.375 17.226562 11.800781 15.300781 11.800781 Z M 15.300781 13.199219 C 16.46875 13.199219 17.398438 14.132812 17.398438 15.300781 C 17.398438 16.46875 16.46875 17.398438 15.300781 17.398438 C 14.132812 17.398438 13.199219 16.46875 13.199219 15.300781 C 13.199219 14.132812 14.132812 13.199219 15.300781 13.199219 Z M 15.300781 13.199219 "/>
</g>
</svg>
